<?xml version="1.0" encoding="UTF-8"?>
<svg width="1200pt" height="1200pt" version="1.1" viewBox="0 0 1200 1200" xmlns="http://www.w3.org/2000/svg">
 <path d="m1149.3 600c0-110.44-104.21-207.15-260.18-260.55-51.867-166.58-151.88-279.44-266.8-279.44-68.082 0-130.94 39.621-181.66 106.54-87.102-14.039-163.25 1.6719-213.19 51.613-47.707 47.707-64.223 119.32-53.367 201.57-65.832 50.477-104.79 112.79-104.79 180.27 0 117.13 117.29 218.77 289.18 269.72 52.648 161.51 151.04 270.27 263.82 270.27 66.992 0 128.89-38.438 179.18-103.42 77.223 7.7773 144.25-9.3516 189.64-54.742 47.711-47.707 64.227-119.32 53.371-201.57 65.824-50.48 104.79-112.8 104.79-180.27zm-483.46-461.97c76.316 0 143.91 74.773 185.7 189.77-37.508-10.641-77.508-18.871-119.39-24.367-59.34-45.562-120.6-80.961-179.96-104.95 33.527-38.406 72.293-60.449 113.65-60.449zm229.83 461.66c0 49.246-3.875 96.652-10.984 141.16-76.934 28.559-172.34 45.465-275.68 45.465-25.719 0-50.91-1.0938-75.484-3.1055-19.004-16.102-37.797-33.301-56.172-51.676-12.793-12.789-24.984-25.793-36.68-38.918-3.0547-30.016-4.6562-61.094-4.6562-92.918 0-97.973 15.238-188.74 41.148-263.47 41.789-6.1875 86.02-9.5625 131.85-9.5625 38.238 0 75.355 2.3555 110.89 6.7188 27.98 21.906 55.664 46.305 82.488 73.125 33.434 33.434 63.172 68.203 88.898 103.22 2.8516 29.098 4.3828 59.164 4.3828 89.965zm30.367-38.555c26.992 43.574 47.441 86.715 60.707 127.4-19.895 14.078-42.805 27.023-68.398 38.527 5.5508-40.758 8.5625-83.281 8.5625-127.07 0-13.086-0.35547-26.016-0.87109-38.863zm-211.5 337.61c48.223-5.3711 94.086-14.391 136.77-26.48-7.7109 21.129-16.301 40.867-25.652 59.047-34.473-4.5234-72.039-15.562-111.11-32.566zm-435.1-503.15c20.762-10.539 43.535-20.078 68.031-28.484-12.707 47.055-21.691 97.867-26.258 151.27-21.07-42.988-35.195-84.586-41.773-122.78zm251.64-169.8c44.59 15.75 91.848 39.906 139.2 71.602-20.023-1.2734-40.344-1.9883-60.969-1.9883-41.09 0-81.055 2.6758-119.52 7.582 12.129-28.996 26-54.922 41.285-77.195zm293.61 158.82c-14.527-14.527-29.34-28.336-44.336-41.551 29.387 5.8516 57.293 13.141 83.336 21.734 7.7617 26.324 14.242 54.336 19.305 83.684-18.09-21.703-37.508-43.07-58.305-63.867zm-511.27-142.06c25.055-25.051 60.184-37.363 101.71-38.219-22.23 36.613-41.344 79.043-56.625 125.93-29.402 8.7148-57.172 18.922-83.062 30.434-2.3672-48.711 9.6797-89.848 37.973-118.14zm-166.08 313.92c0-31.543 12.789-61.598 35.891-88.965 21.199 86.152 69.32 180.48 140.71 269.69-107.48-42.086-176.6-107.37-176.6-180.72zm518.5 504.87c-69.707 0-132.12-62.422-174.27-160.86 86.656 65.562 177.18 109.28 259.64 127.82-26.402 21.234-55.195 33.039-85.375 33.039zm300.47-165.9c-25.629 25.629-61.82 37.906-104.61 38.242 10.203-22.973 19.406-47.391 27.426-73.152 42.422-14.527 80.922-32.301 114.63-52.641-3.1211 35.367-15.297 65.398-37.445 87.551zm48.137-228.98c-21.336-55.371-52.637-112.56-93.035-168.48-4.5195-41.902-11.781-82.043-21.422-119.9 104.12 42.141 170.68 106.39 170.68 178.4-0.003906 39.848-20.391 77.316-56.227 109.99z"/>
</svg>
